PathFileType	4	(X/Y/Z)	/Users/itak/Documents/Research/Walk-IL/dataset/trc/00238_00009.trc
DataRate	CameraRate	NumFrames	NumMarkers	Units	OrigDataRate	OrigDataStartFrame	OrigNumFrames
100.000000	100.000000	4	53	mm	100.000000	103	827
Frame#	Time	RPSI			LPSI			L3			STRN			T10			C7			CLAV			RBAK			LBAK			LSHO			LUPA			LAEL			LAOL			LWTS			LWPS			LFRA			LIFD			LHPS			LHTS			RSHO			RUPA			RAEL			RAOL			RWTS			RWPS			RFRA			RIFD			RHTS			RHPS			RBHD			LFHD			RFHD			LBHD			LHIP			RHIP			RASI			LASI			LKNE			LTHI			LANK			LTIP			LTOE			LMT1			LMT5			LHEE			RKNE			RTHI			RANK			RTIP			RTOE			RMT1			RMT5			RHEE			
		X1	Y1	Z1	X2	Y2	Z2	X3	Y3	Z3	X4	Y4	Z4	X5	Y5	Z5	X6	Y6	Z6	X7	Y7	Z7	X8	Y8	Z8	X9	Y9	Z9	X10	Y10	Z10	X11	Y11	Z11	X12	Y12	Z12	X13	Y13	Z13	X14	Y14	Z14	X15	Y15	Z15	X16	Y16	Z16	X17	Y17	Z17	X18	Y18	Z18	X19	Y19	Z19	X20	Y20	Z20	X21	Y21	Z21	X22	Y22	Z22	X23	Y23	Z23	X24	Y24	Z24	X25	Y25	Z25	X26	Y26	Z26	X27	Y27	Z27	X28	Y28	Z28	X29	Y29	Z29	X30	Y30	Z30	X31	Y31	Z31	X32	Y32	Z32	X33	Y33	Z33	X34	Y34	Z34	X35	Y35	Z35	X36	Y36	Z36	X37	Y37	Z37	X38	Y38	Z38	X39	Y39	Z39	X40	Y40	Z40	X41	Y41	Z41	X42	Y42	Z42	X43	Y43	Z43	X44	Y44	Z44	X45	Y45	Z45	X46	Y46	Z46	X47	Y47	Z47	X48	Y48	Z48	X49	Y49	Z49	X50	Y50	Z50	X51	Y51	Z51	X52	Y52	Z52	X53	Y53	Z53	

104	1.03	216.1911010742188	1055.486083984375	798.5888671875	198.1734161376953	1061.921264648438	917.850341796875	207.1160125732422	1139.230224609375	876.6557006835938	-42.14902114868164	1311.052001953125	841.4020385742188	210.4589538574219	1264.723999023438	874.8059692382812	136.6824035644531	1522.928833007812	872.175537109375	-22.65482139587402	1429.770263671875	844.2484130859375	232.5485992431641	1390.352294921875	808.9390258789062	140.8345794677734	1484.435546875	984.0726928710938	43.05620956420898	1480.385986328125	1025.354858398438	67.71823120117188	1363.4375	1108.100708007812	62.09686660766602	1153.53076171875	1136.095092773438	140.7602996826172	1140.697387695312	1099.48486328125	-9.857925415039062	917.03076171875	1065.5673828125	4.262104034423828	900.265380859375	1148.616333007812	42.64210891723633	1045.290893554688	1147.232788085938	-26.25395965576172	721.5078125	1075.87451171875	-13.3259744644165	812.0254516601562	1140.509033203125	-48.04594802856445	817.171142578125	1081.92578125	107.2073135375977	1481.749145507812	695.4356689453125	139.3260498046875	1418.3447265625	631.747314453125	171.2518768310547	1139.179931640625	589.4457397460938	197.2676086425781	1131.6201171875	680.6421508789062	39.03829956054688	919.3889770507812	616.9820556640625	96.36600494384766	908.6173095703125	556.4913940429688	148.0153350830078	1070.239868164062	573.4158935546875	29.83092498779297	723.2093505859375	611.6742553710938	5.087862491607666	797.315673828125	594.0355224609375	62.44432067871094	800.8204345703125	548.49072265625	118.5746307373047	1658.757202148438	832.229736328125	-94.47340393066406	1733.878051757812	856.7435913085938	-62.21027374267578	1729.027221679688	762.0491943359375	34.31414413452148	1676.876831054688	942.8340454101562	80.70353698730469	993.0879516601562	1042.765380859375	138.0115661621094	1008.572143554688	678.9694213867188	34.64053344726562	1046.778442382812	700.467529296875	-15.45166873931885	1028.717651367188	980.1941528320312	71.59507751464844	504.768798828125	999.2540893554688	65.86826324462891	648.925048828125	1031.711059570312	159.2088928222656	34.89702606201172	998.6961059570312	123.1070785522461	284.2180480957031	1011.5751953125	-45.40724945068359	44.88811111450195	915.135498046875	26.76856231689453	40.65026092529297	881.2213134765625	31.07666969299316	36.17433929443359	999.642333984375	227.7812194824219	43.46557235717773	954.6647338867188	103.8071060180664	512.73974609375	732.7145385742188	87.78515625	779.0916137695312	671.7916870117188	173.8680725097656	36.79305648803711	787.8889770507812	98.09756469726562	397.0003356933594	756.0508422851562	-40.88912200927734	44.99993515014648	809.677490234375	10.52461719512939	42.08171463012695	862.4097290039062	65.82012176513672	38.31783294677734	752.140869140625	229.7232360839844	34.27739334106445	852.6076049804688	
105	1.04	215.0903778076172	1055.3369140625	797.308349609375	197.0269012451172	1061.883666992188	916.5609741210938	206.0598907470703	1139.121948242188	875.2980346679688	-43.25219345092773	1310.967041015625	839.9473266601562	209.3081512451172	1264.630249023438	873.3460693359375	135.5949554443359	1522.849609375	870.5540161132812	-23.76879692077637	1429.661987304688	842.7576904296875	231.4630126953125	1390.201293945312	807.3853149414062	139.7789154052734	1484.406005859375	982.4518432617188	42.05307006835938	1480.439208984375	1023.820617675781	67.04119873046875	1363.575561523438	1106.654052734375	62.09720611572266	1153.76220703125	1134.897094726562	140.6711730957031	1141.076416015625	1097.984985351562	-9.473546981811523	916.9354248046875	1065.071166992188	5.096603393554688	900.3696899414062	1148.101196289062	43.06448364257812	1045.480346679688	1146.3095703125	-25.21257209777832	721.4322509765625	1075.83984375	-12.27250671386719	812.110595703125	1140.23681640625	-47.16874313354492	816.9898681640625	1081.748413085938	106.0788726806641	1481.526123046875	693.8575439453125	138.1301879882812	1418.067749023438	630.2095947265625	169.95703125	1138.860595703125	588.1099243164062	196.0321655273438	1131.359985351562	679.3071899414062	37.76486206054688	919.119384765625	615.78076171875	95.06980133056641	908.298828125	555.2943115234375	146.7618865966797	1069.924438476562	572.1212768554688	28.51131248474121	722.913818359375	610.5917358398438	3.805361747741699	797.0169677734375	592.9231567382812	61.12701416015625	800.4718627929688	547.3659057617188	117.8544921875	1658.470092773438	830.7800903320312	-95.03401184082031	1734.054443359375	855.2457275390625	-62.73626708984375	1729.276000976562	760.5910034179688	33.62912368774414	1676.621826171875	941.3626098632812	79.6248779296875	993.1779174804688	1041.467529296875	137.0015563964844	1008.370361328125	677.6105346679688	33.55950927734375	1046.576293945312	699.0722045898438	-17.25928688049316	1029.1328125	979.090576171875	70.09600830078125	504.8088073730469	998.39990234375	64.59574890136719	648.9815063476562	1030.736450195312	159.2106475830078	34.89752578735352	998.711669921875	122.3156661987305	284.2302551269531	1010.992980957031	-45.39715194702148	44.88491439819336	915.1348266601562	26.77199935913086	40.64804077148438	881.224365234375	31.07120323181152	36.15719985961914	999.6417846679688	227.7840576171875	43.47836303710938	954.6626586914062	103.2954635620117	512.5468139648438	731.9947509765625	86.93245697021484	778.796875	670.7628784179688	173.8917083740234	36.70368576049805	787.8280029296875	97.73112487792969	396.7821655273438	755.5252075195312	-40.87037658691406	44.95987319946289	809.7662963867188	10.52670097351074	42.08270263671875	862.4236450195312	65.81303405761719	38.30466842651367	752.1258544921875	229.7407531738281	34.22737121582031	852.5730590820312	
106	1.05	213.9614868164062	1055.150268554688	795.999267578125	195.8372192382812	1061.817016601562	915.2488403320312	204.9804840087891	1138.997680664062	873.9156494140625	-44.37131881713867	1310.88427734375	838.4436645507812	208.1538238525391	1264.520141601562	871.863037109375	134.5077209472656	1522.754272460938	868.9055786132812	-24.89183235168457	1429.546020507812	841.2260131835938	230.3671417236328	1390.036254882812	805.8180541992188	138.6994018554688	1484.362915039062	980.8056640625	41.02620697021484	1480.493774414062	1022.244445800781	66.31243896484375	1363.70703125	1105.1796875	62.14228439331055	1154.000610351562	1133.684204101562	140.6097717285156	1141.465087890625	1096.439819335938	-9.124736785888672	916.8646240234375	1064.567016601562	5.932737827301025	900.494140625	1147.563842773438	43.52021026611328	1045.688842773438	1145.37060546875	-24.18573951721191	721.35693359375	1075.786865234375	-11.20915985107422	812.2490234375	1139.964233398438	-46.31034469604492	816.8463745117188	1081.557739257812	104.9648590087891	1481.29541015625	692.246826171875	136.9699401855469	1417.776123046875	628.6427612304688	168.66015625	1138.524169921875	586.7489013671875	194.7737274169922	1131.081420898438	677.9514770507812	36.4124641418457	918.86572265625	614.5442504882812	93.69911956787109	907.9825439453125	554.0668334960938	145.4773254394531	1069.593017578125	570.8016967773438	27.04438781738281	722.660888671875	609.4646606445312	2.398670434951782	796.751220703125	591.7764892578125	59.69586181640625	800.1416015625	546.20849609375	117.0959930419922	1658.217163085938	829.2581787109375	-95.66147613525391	1734.168579101562	853.6947021484375	-63.35293197631836	1729.45556640625	759.0734252929688	32.91800308227539	1676.378662109375	939.8274536132812	78.49282073974609	993.2686767578125	1040.143798828125	135.9801177978516	1008.145324707031	676.214111328125	32.47883987426758	1046.36474609375	697.6329956054688	-18.99055099487305	1029.511108398438	977.845703125	68.3980712890625	504.8492126464844	997.4760131835938	63.16562271118164	649.0305786132812	1029.705444335938	159.2110595703125	34.8915901184082	998.7376708984375	121.4175643920898	284.2196655273438	1010.35888671875	-45.37609100341797	44.88518905639648	915.1409912109375	26.77740859985352	40.64049911499023	881.2109375	31.06335258483887	36.13998794555664	999.6409912109375	227.7874755859375	43.48207473754883	954.6672973632812	102.7076950073242	512.3411865234375	731.2286376953125	86.02293395996094	778.4869995117188	669.698974609375	173.9188690185547	36.60847091674805	787.755126953125	97.27827453613281	396.5405883789062	754.9718017578125	-40.85649490356445	44.91040802001953	809.8739624023438	10.53708648681641	42.09254455566406	862.4486694335938	65.80487060546875	38.28727340698242	752.1036987304688	229.7654724121094	34.16828536987305	852.5228881835938	
107	1.06	212.8109436035156	1054.92138671875	794.6596069335938	194.6192321777344	1061.718627929688	913.9110717773438	203.8768920898438	1138.859008789062	872.508544921875	-45.50730133056641	1310.798828125	836.8944702148438	206.9967346191406	1264.392944335938	870.3571166992188	133.4180755615234	1522.641967773438	867.2301025390625	-26.02204322814941	1429.421752929688	839.6512451171875	229.2611541748047	1389.858642578125	804.2351684570312	137.5919036865234	1484.307983398438	979.1343994140625	39.96279144287109	1480.5517578125	1020.630126953125	65.53061676025391	1363.833251953125	1103.678833007812	62.24565505981445	1154.24853515625	1132.460327148438	140.5785827636719	1141.8671875	1094.849243164062	-8.809867858886719	916.822265625	1064.057495117188	6.76983642578125	900.6376342773438	1147.002563476562	44.00597763061523	1045.921508789062	1144.415771484375	-23.19555282592773	721.268798828125	1075.711791992188	-10.13964366912842	812.4296875	1139.682861328125	-45.50553894042969	816.7710571289062	1081.364135742188	103.8629760742188	1481.0556640625	690.603759765625	135.8418426513672	1417.47265625	627.0462036132812	167.3655548095703	1138.171875	585.3599853515625	193.4892730712891	1130.78564453125	676.5713500976562	34.98349761962891	918.6282958984375	613.2747192382812	92.25502777099609	907.6688842773438	552.8095092773438	144.1605224609375	1069.248657226562	569.455322265625	25.43453216552734	722.451171875	608.2952270507812	0.8655982613563538	796.5242919921875	590.595458984375	58.15398406982422	799.8328247070312	545.0195922851562	116.2965774536133	1657.995361328125	827.6732788085938	-96.3609619140625	1734.226928710938	852.0943603515625	-64.05486297607422	1729.568969726562	757.4962158203125	32.16503524780273	1676.1484375	938.2327880859375	77.31193542480469	993.353271484375	1038.792114257812	134.9560241699219	1007.894958496094	674.78564453125	31.3918399810791	1046.141845703125	696.15185546875	-20.53970146179199	1029.799682617188	976.4198608398438	66.46405029296875	504.8904113769531	996.47900390625	61.56840896606445	649.0696411132812	1028.61279296875	159.2103576660156	34.88079071044922	998.7735595703125	120.3889312744141	284.1961059570312	1009.675231933594	-45.34241485595703	44.89152908325195	915.1570434570312	26.78821563720703	40.63748168945312	881.1897583007812	31.0519905090332	36.12089157104492	999.6402587890625	227.7905883789062	43.47540283203125	954.6812744140625	102.0530319213867	512.1196899414062	730.4139404296875	85.04847717285156	778.159912109375	668.5977172851562	173.9506072998047	36.50707626342773	787.66796875	96.73957061767578	396.2734985351562	754.3787231445312	-40.84696578979492	44.85346603393555	809.9993286132812	10.55666637420654	42.10839080810547	862.4790649414062	65.79506683349609	38.26570510864258	752.0711669921875	229.8002471923828	34.09878540039062	852.4514770507812	
